<svg width="288" height="323" viewBox="0 0 288 323" fill="none" xmlns="http://www.w3.org/2000/svg">
<g opacity="0.2">
<path d="M248.82 102.443C246.924 102.443 245.237 102.135 243.759 101.52C242.29 100.896 241.137 100.046 240.299 98.9709C239.462 97.8956 239.044 96.6766 239.044 95.314C239.044 94.2633 239.282 93.2987 239.758 92.4204C240.242 91.5339 240.899 90.7992 241.728 90.2164C242.557 89.6254 243.484 89.2478 244.511 89.0836V88.9112C243.164 88.6404 242.073 87.9878 241.235 86.9535C240.398 85.911 239.979 84.7002 239.979 83.3212C239.979 82.016 240.361 80.8545 241.124 79.8366C241.888 78.8105 242.934 78.0061 244.264 77.4233C245.602 76.8323 247.121 76.5367 248.82 76.5367C250.519 76.5367 252.034 76.8323 253.364 77.4233C254.702 78.0143 255.752 78.8228 256.516 79.8489C257.279 80.8668 257.665 82.0242 257.673 83.3212C257.665 84.7084 257.238 85.9192 256.392 86.9535C255.547 87.9878 254.463 88.6404 253.142 88.9112V89.0836C254.152 89.2478 255.067 89.6254 255.888 90.2164C256.717 90.7992 257.373 91.5339 257.858 92.4204C258.35 93.2987 258.601 94.2633 258.609 95.314C258.601 96.6766 258.178 97.8956 257.341 98.9709C256.503 100.046 255.346 100.896 253.868 101.52C252.399 102.135 250.716 102.443 248.82 102.443ZM248.82 98.5276C249.666 98.5276 250.404 98.3758 251.036 98.0721C251.668 97.7601 252.161 97.3333 252.514 96.7915C252.875 96.2415 253.056 95.6095 253.056 94.8953C253.056 94.1648 252.871 93.5204 252.502 92.9622C252.132 92.3958 251.631 91.9525 250.999 91.6324C250.367 91.3041 249.641 91.1399 248.82 91.1399C248.007 91.1399 247.281 91.3041 246.641 91.6324C246 91.9525 245.496 92.3958 245.126 92.9622C244.765 93.5204 244.584 94.1648 244.584 94.8953C244.584 95.6095 244.761 96.2415 245.114 96.7915C245.467 97.3333 245.963 97.7601 246.604 98.0721C247.244 98.3758 247.983 98.5276 248.82 98.5276ZM248.82 87.2613C249.526 87.2613 250.154 87.1177 250.704 86.8304C251.254 86.543 251.685 86.1449 251.997 85.636C252.309 85.1271 252.465 84.5401 252.465 83.8752C252.465 83.2186 252.309 82.644 251.997 82.1514C251.685 81.6507 251.258 81.2608 250.716 80.9817C250.174 80.6944 249.542 80.5508 248.82 80.5508C248.106 80.5508 247.474 80.6944 246.924 80.9817C246.374 81.2608 245.943 81.6507 245.631 82.1514C245.327 82.644 245.175 83.2186 245.175 83.8752C245.175 84.5401 245.331 85.1271 245.643 85.636C245.955 86.1449 246.386 86.543 246.936 86.8304C247.486 87.1177 248.114 87.2613 248.82 87.2613ZM262.64 102.098L273.094 81.4127V81.2403H260.917V76.8815H278.61V81.3018L268.144 102.098H262.64ZM295.374 97.3702V96.0404C295.374 95.0308 295.587 94.1032 296.014 93.2577C296.449 92.404 297.077 91.7227 297.898 91.2138C298.727 90.6966 299.736 90.438 300.927 90.438C302.133 90.438 303.147 90.6925 303.968 91.2014C304.797 91.7104 305.421 92.3917 305.839 93.2454C306.266 94.0909 306.48 95.0226 306.48 96.0404V97.3702C306.48 98.3799 306.266 99.3116 305.839 100.165C305.413 101.011 304.785 101.688 303.956 102.197C303.127 102.714 302.117 102.973 300.927 102.973C299.72 102.973 298.706 102.714 297.885 102.197C297.064 101.688 296.441 101.011 296.014 100.165C295.587 99.3116 295.374 98.3799 295.374 97.3702ZM298.957 96.0404V97.3702C298.957 97.953 299.096 98.503 299.375 99.0202C299.663 99.5373 300.18 99.7959 300.927 99.7959C301.674 99.7959 302.183 99.5414 302.453 99.0325C302.733 98.5235 302.872 97.9695 302.872 97.3702V96.0404C302.872 95.4412 302.741 94.883 302.478 94.3659C302.215 93.8487 301.698 93.5902 300.927 93.5902C300.188 93.5902 299.675 93.8487 299.388 94.3659C299.1 94.883 298.957 95.4412 298.957 96.0404ZM282.433 82.9395V81.6097C282.433 80.5918 282.65 79.6601 283.085 78.8146C283.52 77.9609 284.148 77.2796 284.969 76.7707C285.798 76.2618 286.8 76.0073 287.973 76.0073C289.188 76.0073 290.206 76.2618 291.027 76.7707C291.848 77.2796 292.472 77.9609 292.899 78.8146C293.325 79.6601 293.539 80.5918 293.539 81.6097V82.9395C293.539 83.9573 293.321 84.889 292.886 85.7345C292.459 86.58 291.831 87.2572 291.002 87.7661C290.182 88.2669 289.172 88.5172 287.973 88.5172C286.775 88.5172 285.761 88.2628 284.932 87.7538C284.111 87.2367 283.487 86.5595 283.061 85.7222C282.642 84.8767 282.433 83.9491 282.433 82.9395ZM286.04 81.6097V82.9395C286.04 83.5387 286.18 84.0928 286.459 84.6017C286.746 85.1106 287.251 85.3651 287.973 85.3651C288.729 85.3651 289.242 85.1106 289.513 84.6017C289.792 84.0928 289.931 83.5387 289.931 82.9395V81.6097C289.931 81.0104 289.8 80.4523 289.537 79.9351C289.274 79.418 288.753 79.1594 287.973 79.1594C287.243 79.1594 286.738 79.4221 286.459 79.9474C286.18 80.4728 286.04 81.0269 286.04 81.6097ZM284.058 102.098L301.395 76.8815H304.621L287.284 102.098H284.058Z" fill="#585D62"/>
<path d="M233.954 160.561C224.669 155.396 216.493 148.453 209.892 140.127C203.292 131.802 198.395 122.258 195.483 112.041C192.57 101.824 191.699 91.1324 192.918 80.5781C194.137 70.0238 197.423 59.813 202.589 50.5287C207.754 41.2444 214.697 33.0684 223.023 26.4675C231.348 19.8666 240.891 14.9701 251.109 12.0576C261.326 9.14511 272.018 8.27359 282.572 9.49284C293.126 10.7121 303.337 13.9982 312.621 19.1636C321.906 24.329 330.082 31.2725 336.682 39.5976C343.283 47.9228 348.18 57.4666 351.092 67.6841C354.005 77.9015 354.876 88.5926 353.657 99.1469C352.438 109.701 349.152 119.912 343.986 129.196C338.821 138.481 331.877 146.657 323.552 153.258C315.227 159.858 305.683 164.755 295.466 167.667C285.248 170.58 274.557 171.451 264.003 170.232C253.449 169.013 243.238 165.727 233.954 160.561L233.954 160.561Z" stroke="#1A1A1A" stroke-width="17.3366"/>
<path d="M273.287 170.767C255.054 170.767 237.355 164.608 223.061 153.288C208.767 141.968 198.715 126.152 194.537 108.404C190.358 90.6561 192.297 72.0168 200.039 55.5088C207.781 39.0008 220.873 25.5922 237.191 17.4571C253.509 9.32209 272.097 6.93771 289.94 10.6906C307.783 14.4435 323.835 24.1137 335.493 38.133C347.151 52.1523 353.732 69.6987 354.168 87.9269C354.605 106.155 348.871 123.996 337.896 138.557" stroke="#585D62" stroke-width="17.3366" stroke-linecap="round" stroke-linejoin="round"/>
</g>
<path d="M63.6874 142.345C64.9844 142.345 66.2321 142.562 67.4306 142.997C68.6372 143.432 69.7125 144.126 70.6565 145.078C71.6087 146.031 72.3598 147.295 72.9098 148.871C73.468 150.439 73.7512 152.363 73.7594 154.645C73.7594 156.788 73.5172 158.701 73.0329 160.383C72.5568 162.058 71.8714 163.482 70.9767 164.656C70.0819 165.83 69.0025 166.724 67.7384 167.34C66.4742 167.948 65.0624 168.251 63.5027 168.251C61.82 168.251 60.3342 167.927 59.0454 167.279C57.7567 166.622 56.7183 165.731 55.9303 164.607C55.1505 163.474 54.6785 162.202 54.5143 160.79H59.7719C59.9771 161.709 60.4081 162.423 61.0648 162.932C61.7215 163.433 62.5341 163.683 63.5027 163.683C65.1444 163.683 66.3922 162.969 67.2459 161.541C68.0996 160.104 68.5305 158.138 68.5387 155.643H68.3663C67.9887 156.382 67.4798 157.018 66.8395 157.551C66.1993 158.077 65.4646 158.483 64.6355 158.77C63.8147 159.058 62.9404 159.201 62.0129 159.201C60.5271 159.201 59.2014 158.852 58.0358 158.155C56.8702 157.457 55.9508 156.497 55.2777 155.273C54.6046 154.05 54.268 152.655 54.268 151.087C54.2598 149.396 54.6497 147.89 55.4378 146.568C56.2258 145.247 57.3257 144.212 58.7376 143.465C60.1577 142.71 61.8076 142.337 63.6874 142.345ZM63.7244 146.531C62.8953 146.531 62.1565 146.728 61.508 147.122C60.8678 147.516 60.3588 148.046 59.9812 148.711C59.6118 149.376 59.4312 150.118 59.4395 150.939C59.4395 151.768 59.62 152.515 59.9812 153.18C60.3506 153.837 60.8513 154.362 61.4834 154.756C62.1237 155.142 62.8542 155.335 63.6751 155.335C64.2908 155.335 64.8613 155.22 65.3866 154.99C65.912 154.76 66.3675 154.444 66.7533 154.042C67.1474 153.632 67.4552 153.16 67.6768 152.626C67.8984 152.093 68.0093 151.526 68.0093 150.927C68.001 150.131 67.8123 149.4 67.4429 148.735C67.0735 148.07 66.5645 147.537 65.9161 147.135C65.2676 146.732 64.537 146.531 63.7244 146.531ZM86.1669 168.251C84.2707 168.251 82.5838 167.943 81.1063 167.328C79.6369 166.704 78.4836 165.854 77.6463 164.779C76.8091 163.704 76.3904 162.485 76.3904 161.122C76.3904 160.071 76.6285 159.107 77.1046 158.229C77.5889 157.342 78.2456 156.607 79.0746 156.025C79.9037 155.433 80.8313 155.056 81.8574 154.892V154.719C80.5112 154.448 79.4194 153.796 78.5821 152.762C77.7448 151.719 77.3262 150.508 77.3262 149.129C77.3262 147.824 77.7079 146.663 78.4713 145.645C79.2347 144.619 80.2813 143.814 81.6111 143.231C82.9491 142.64 84.4677 142.345 86.1669 142.345C87.8661 142.345 89.3806 142.64 90.7104 143.231C92.0484 143.822 93.0991 144.631 93.8625 145.657C94.6259 146.675 95.0117 147.832 95.0199 149.129C95.0117 150.517 94.5848 151.727 93.7393 152.762C92.8939 153.796 91.8103 154.448 90.4887 154.719V154.892C91.4984 155.056 92.4137 155.433 93.2345 156.025C94.0636 156.607 94.7203 157.342 95.2046 158.229C95.6971 159.107 95.9475 160.071 95.9557 161.122C95.9475 162.485 95.5247 163.704 94.6874 164.779C93.8502 165.854 92.6927 166.704 91.2152 167.328C89.7459 167.943 88.0631 168.251 86.1669 168.251ZM86.1669 164.336C87.0124 164.336 87.7512 164.184 88.3832 163.88C89.0153 163.568 89.5078 163.141 89.8608 162.6C90.222 162.05 90.4025 161.418 90.4025 160.703C90.4025 159.973 90.2178 159.328 89.8485 158.77C89.4791 158.204 88.9783 157.761 88.3463 157.441C87.7142 157.112 86.9878 156.948 86.1669 156.948C85.3542 156.948 84.6278 157.112 83.9875 157.441C83.3472 157.761 82.8424 158.204 82.473 158.77C82.1118 159.328 81.9312 159.973 81.9312 160.703C81.9312 161.418 82.1077 162.05 82.4607 162.6C82.8137 163.141 83.3103 163.568 83.9506 163.88C84.5908 164.184 85.3296 164.336 86.1669 164.336ZM86.1669 153.069C86.8728 153.069 87.5008 152.926 88.0508 152.638C88.6007 152.351 89.0317 151.953 89.3436 151.444C89.6556 150.935 89.8115 150.348 89.8115 149.683C89.8115 149.027 89.6556 148.452 89.3436 147.96C89.0317 147.459 88.6049 147.069 88.0631 146.79C87.5213 146.503 86.8893 146.359 86.1669 146.359C85.4527 146.359 84.8207 146.503 84.2707 146.79C83.7207 147.069 83.2898 147.459 82.9778 147.96C82.6741 148.452 82.5223 149.027 82.5223 149.683C82.5223 150.348 82.6782 150.935 82.9902 151.444C83.3021 151.953 83.733 152.351 84.283 152.638C84.833 152.926 85.461 153.069 86.1669 153.069ZM112.793 163.178V161.849C112.793 160.839 113.006 159.911 113.433 159.066C113.868 158.212 114.496 157.531 115.317 157.022C116.146 156.505 117.156 156.246 118.346 156.246C119.553 156.246 120.566 156.501 121.387 157.01C122.216 157.518 122.84 158.2 123.259 159.053C123.686 159.899 123.899 160.831 123.899 161.849V163.178C123.899 164.188 123.686 165.12 123.259 165.973C122.832 166.819 122.204 167.496 121.375 168.005C120.546 168.522 119.536 168.781 118.346 168.781C117.139 168.781 116.125 168.522 115.305 168.005C114.484 167.496 113.86 166.819 113.433 165.973C113.006 165.12 112.793 164.188 112.793 163.178ZM116.376 161.849V163.178C116.376 163.761 116.515 164.311 116.794 164.828C117.082 165.345 117.599 165.604 118.346 165.604C119.093 165.604 119.602 165.35 119.873 164.841C120.152 164.332 120.291 163.778 120.291 163.178V161.849C120.291 161.249 120.16 160.691 119.897 160.174C119.635 159.657 119.117 159.398 118.346 159.398C117.607 159.398 117.094 159.657 116.807 160.174C116.519 160.691 116.376 161.249 116.376 161.849ZM99.8519 148.748V147.418C99.8519 146.4 100.069 145.468 100.504 144.623C100.939 143.769 101.567 143.088 102.388 142.579C103.217 142.07 104.219 141.815 105.393 141.815C106.608 141.815 107.625 142.07 108.446 142.579C109.267 143.088 109.891 143.769 110.318 144.623C110.745 145.468 110.958 146.4 110.958 147.418V148.748C110.958 149.765 110.741 150.697 110.306 151.543C109.879 152.388 109.251 153.065 108.422 153.574C107.601 154.075 106.591 154.325 105.393 154.325C104.194 154.325 103.18 154.071 102.351 153.562C101.531 153.045 100.907 152.368 100.48 151.53C100.061 150.685 99.8519 149.757 99.8519 148.748ZM103.46 147.418V148.748C103.46 149.347 103.599 149.901 103.878 150.41C104.165 150.919 104.67 151.173 105.393 151.173C106.148 151.173 106.661 150.919 106.932 150.41C107.211 149.901 107.35 149.347 107.35 148.748V147.418C107.35 146.819 107.219 146.26 106.956 145.743C106.694 145.226 106.172 144.967 105.393 144.967C104.662 144.967 104.157 145.23 103.878 145.756C103.599 146.281 103.46 146.835 103.46 147.418ZM101.477 167.906L118.814 142.69H122.04L104.703 167.906H101.477Z" fill="#0FC4AE"/>
<path d="M50.2387 226.37C40.9544 221.204 32.7784 214.261 26.1775 205.936C19.5766 197.61 14.6801 188.067 11.7676 177.849C8.85507 167.632 7.98355 156.941 9.2028 146.386C10.422 135.832 13.7082 125.621 18.8736 116.337C24.039 107.052 30.9824 98.8765 39.3076 92.2756C47.6328 85.6747 57.1765 80.7783 67.394 77.8657C77.6115 74.9532 88.3026 74.0817 98.8569 75.3009C109.411 76.5202 119.622 79.8063 128.906 84.9717C138.191 90.1371 146.367 97.0806 152.967 105.406C159.568 113.731 164.465 123.275 167.377 133.492C170.29 143.71 171.161 154.401 169.942 164.955C168.723 175.509 165.437 185.72 160.271 195.004C155.106 204.289 148.162 212.465 139.837 219.066C131.512 225.667 121.968 230.563 111.751 233.476C101.533 236.388 90.8424 237.26 80.2881 236.04C69.7338 234.821 59.523 231.535 50.2386 226.37L50.2387 226.37Z" stroke="#1A1A1A" stroke-width="17.3366"/>
<path d="M89.5725 236.575C69.6126 236.575 50.3571 229.196 35.5082 215.858C20.6593 202.52 11.2651 184.163 9.13176 164.318C6.99838 144.472 12.2764 124.539 23.9511 108.349C35.6258 92.1597 52.8731 80.8573 72.377 76.615C91.8808 72.3726 112.265 75.4899 129.609 85.3673C146.954 95.2448 160.035 111.185 166.337 130.124C172.64 149.063 171.719 169.663 163.752 187.964C155.785 206.265 141.334 220.974 123.178 229.265" stroke="#0FC4AE" stroke-width="17.3366" stroke-linecap="round" stroke-linejoin="round"/>
<g opacity="0.5">
<path d="M207.728 269.392C209.025 269.392 210.273 269.609 211.471 270.044C212.678 270.479 213.753 271.173 214.697 272.125C215.65 273.077 216.401 274.342 216.951 275.918C217.509 277.485 217.792 279.41 217.8 281.692C217.8 283.835 217.558 285.747 217.074 287.43C216.598 289.105 215.912 290.529 215.017 291.703C214.123 292.877 213.043 293.771 211.779 294.387C210.515 294.994 209.103 295.298 207.544 295.298C205.861 295.298 204.375 294.974 203.086 294.325C201.797 293.669 200.759 292.778 199.971 291.654C199.191 290.521 198.719 289.248 198.555 287.836H203.813C204.018 288.756 204.449 289.47 205.106 289.979C205.762 290.48 206.575 290.73 207.544 290.73C209.185 290.73 210.433 290.016 211.287 288.588C212.14 287.151 212.571 285.185 212.58 282.69H212.407C212.03 283.428 211.521 284.065 210.88 284.598C210.24 285.124 209.505 285.53 208.676 285.817C207.855 286.104 206.981 286.248 206.054 286.248C204.568 286.248 203.242 285.899 202.077 285.202C200.911 284.504 199.992 283.543 199.318 282.32C198.645 281.097 198.309 279.702 198.309 278.134C198.301 276.443 198.691 274.937 199.479 273.615C200.267 272.293 201.367 271.259 202.778 270.512C204.199 269.757 205.848 269.384 207.728 269.392ZM207.765 273.578C206.936 273.578 206.197 273.775 205.549 274.169C204.909 274.563 204.4 275.093 204.022 275.758C203.653 276.422 203.472 277.165 203.48 277.986C203.48 278.815 203.661 279.562 204.022 280.227C204.391 280.884 204.892 281.409 205.524 281.803C206.164 282.189 206.895 282.382 207.716 282.382C208.332 282.382 208.902 282.267 209.427 282.037C209.953 281.807 210.408 281.491 210.794 281.089C211.188 280.679 211.496 280.207 211.718 279.673C211.939 279.139 212.05 278.573 212.05 277.974C212.042 277.178 211.853 276.447 211.484 275.782C211.114 275.117 210.605 274.584 209.957 274.181C209.308 273.779 208.578 273.578 207.765 273.578ZM220.801 294.953V291.112L229.777 282.801C230.54 282.062 231.18 281.397 231.698 280.806C232.223 280.215 232.621 279.636 232.892 279.07C233.163 278.495 233.298 277.875 233.298 277.21C233.298 276.472 233.13 275.835 232.793 275.302C232.457 274.76 231.997 274.346 231.414 274.058C230.832 273.763 230.171 273.615 229.432 273.615C228.66 273.615 227.987 273.771 227.413 274.083C226.838 274.395 226.395 274.842 226.083 275.425C225.771 276.008 225.615 276.701 225.615 277.506H220.554C220.554 275.856 220.928 274.424 221.675 273.209C222.422 271.994 223.468 271.054 224.815 270.389C226.161 269.724 227.712 269.392 229.469 269.392C231.275 269.392 232.847 269.712 234.185 270.352C235.531 270.984 236.578 271.863 237.325 272.987C238.072 274.112 238.445 275.4 238.445 276.853C238.445 277.806 238.256 278.745 237.879 279.673C237.509 280.601 236.848 281.631 235.896 282.764C234.944 283.888 233.602 285.238 231.87 286.815L228.188 290.422V290.595H238.777V294.953H220.801ZM255.75 290.225V288.895C255.75 287.886 255.963 286.958 256.39 286.113C256.825 285.259 257.453 284.578 258.274 284.069C259.103 283.552 260.113 283.293 261.303 283.293C262.51 283.293 263.524 283.547 264.344 284.056C265.173 284.565 265.797 285.247 266.216 286.1C266.643 286.946 266.856 287.878 266.856 288.895V290.225C266.856 291.235 266.643 292.167 266.216 293.02C265.789 293.866 265.161 294.543 264.332 295.052C263.503 295.569 262.493 295.828 261.303 295.828C260.096 295.828 259.083 295.569 258.262 295.052C257.441 294.543 256.817 293.866 256.39 293.02C255.963 292.167 255.75 291.235 255.75 290.225ZM259.333 288.895V290.225C259.333 290.808 259.473 291.358 259.752 291.875C260.039 292.392 260.556 292.651 261.303 292.651C262.05 292.651 262.559 292.396 262.83 291.887C263.109 291.379 263.249 290.824 263.249 290.225V288.895C263.249 288.296 263.117 287.738 262.855 287.221C262.592 286.704 262.075 286.445 261.303 286.445C260.564 286.445 260.051 286.704 259.764 287.221C259.477 287.738 259.333 288.296 259.333 288.895ZM242.809 275.794V274.465C242.809 273.447 243.027 272.515 243.462 271.67C243.897 270.816 244.525 270.135 245.346 269.626C246.175 269.117 247.176 268.862 248.35 268.862C249.565 268.862 250.583 269.117 251.404 269.626C252.224 270.135 252.848 270.816 253.275 271.67C253.702 272.515 253.915 273.447 253.915 274.465V275.794C253.915 276.812 253.698 277.744 253.263 278.589C252.836 279.435 252.208 280.112 251.379 280.621C250.558 281.122 249.548 281.372 248.35 281.372C247.151 281.372 246.138 281.118 245.309 280.609C244.488 280.092 243.864 279.414 243.437 278.577C243.018 277.732 242.809 276.804 242.809 275.794ZM246.417 274.465V275.794C246.417 276.394 246.556 276.948 246.835 277.457C247.123 277.966 247.628 278.22 248.35 278.22C249.105 278.22 249.618 277.966 249.889 277.457C250.168 276.948 250.308 276.394 250.308 275.794V274.465C250.308 273.865 250.176 273.307 249.914 272.79C249.651 272.273 249.13 272.014 248.35 272.014C247.619 272.014 247.115 272.277 246.835 272.802C246.556 273.328 246.417 273.882 246.417 274.465ZM244.434 294.953L261.771 269.736H264.997L247.66 294.953H244.434Z" fill="#585D62"/>
<path d="M193.737 353.416C184.453 348.251 176.277 341.308 169.676 332.982C163.075 324.657 158.179 315.113 155.266 304.896C152.354 294.678 151.482 283.987 152.702 273.433C153.921 262.879 157.207 252.668 162.372 243.384C167.538 234.099 174.481 225.923 182.806 219.322C191.132 212.722 200.675 207.825 210.893 204.913C221.11 202 231.801 201.129 242.356 202.348C252.91 203.567 263.121 206.853 272.405 212.019C281.689 217.184 289.865 224.127 296.466 232.453C303.067 240.778 307.964 250.322 310.876 260.539C313.789 270.757 314.66 281.448 313.441 292.002C312.222 302.556 308.936 312.767 303.77 322.051C298.605 331.336 291.661 339.512 283.336 346.113C275.011 352.713 265.467 357.61 255.25 360.522C245.032 363.435 234.341 364.306 223.787 363.087C213.233 361.868 203.022 358.582 193.737 353.416L193.737 353.416Z" stroke="#1A1A1A" stroke-width="17.3366"/>
<path d="M233.071 363.622C212.643 363.622 192.971 355.894 178.005 341.99C163.039 328.086 153.887 309.035 152.386 288.662C150.885 268.289 157.146 248.103 169.913 232.155C182.68 216.208 201.007 205.681 221.214 202.687C241.422 199.693 262.014 204.454 278.856 216.015C295.698 227.576 307.544 245.079 312.014 265.012C316.485 284.945 313.249 305.831 302.958 323.478C292.666 341.124 276.08 354.223 256.529 360.146" stroke="#585D62" stroke-width="17.3366" stroke-linecap="round" stroke-linejoin="round"/>
<path d="M207.728 269.392C209.025 269.392 210.273 269.609 211.471 270.044C212.678 270.479 213.753 271.173 214.697 272.125C215.65 273.077 216.401 274.342 216.951 275.918C217.509 277.485 217.792 279.41 217.8 281.692C217.8 283.835 217.558 285.747 217.074 287.43C216.598 289.105 215.912 290.529 215.017 291.703C214.123 292.877 213.043 293.771 211.779 294.387C210.515 294.994 209.103 295.298 207.544 295.298C205.861 295.298 204.375 294.974 203.086 294.325C201.797 293.669 200.759 292.778 199.971 291.654C199.191 290.521 198.719 289.248 198.555 287.836H203.813C204.018 288.756 204.449 289.47 205.106 289.979C205.762 290.48 206.575 290.73 207.544 290.73C209.185 290.73 210.433 290.016 211.287 288.588C212.14 287.151 212.571 285.185 212.58 282.69H212.407C212.03 283.428 211.521 284.065 210.88 284.598C210.24 285.124 209.505 285.53 208.676 285.817C207.855 286.104 206.981 286.248 206.054 286.248C204.568 286.248 203.242 285.899 202.077 285.202C200.911 284.504 199.992 283.543 199.318 282.32C198.645 281.097 198.309 279.702 198.309 278.134C198.301 276.443 198.691 274.937 199.479 273.615C200.267 272.293 201.367 271.259 202.778 270.512C204.199 269.757 205.848 269.384 207.728 269.392ZM207.765 273.578C206.936 273.578 206.197 273.775 205.549 274.169C204.909 274.563 204.4 275.093 204.022 275.758C203.653 276.422 203.472 277.165 203.48 277.986C203.48 278.815 203.661 279.562 204.022 280.227C204.391 280.884 204.892 281.409 205.524 281.803C206.164 282.189 206.895 282.382 207.716 282.382C208.332 282.382 208.902 282.267 209.427 282.037C209.953 281.807 210.408 281.491 210.794 281.089C211.188 280.679 211.496 280.207 211.718 279.673C211.939 279.139 212.05 278.573 212.05 277.974C212.042 277.178 211.853 276.447 211.484 275.782C211.114 275.117 210.605 274.584 209.957 274.181C209.308 273.779 208.578 273.578 207.765 273.578ZM220.801 294.953V291.112L229.777 282.801C230.54 282.062 231.18 281.397 231.698 280.806C232.223 280.215 232.621 279.636 232.892 279.07C233.163 278.495 233.298 277.875 233.298 277.21C233.298 276.472 233.13 275.835 232.793 275.302C232.457 274.76 231.997 274.346 231.414 274.058C230.832 273.763 230.171 273.615 229.432 273.615C228.66 273.615 227.987 273.771 227.413 274.083C226.838 274.395 226.395 274.842 226.083 275.425C225.771 276.008 225.615 276.701 225.615 277.506H220.554C220.554 275.856 220.928 274.424 221.675 273.209C222.422 271.994 223.468 271.054 224.815 270.389C226.161 269.724 227.712 269.392 229.469 269.392C231.275 269.392 232.847 269.712 234.185 270.352C235.531 270.984 236.578 271.863 237.325 272.987C238.072 274.112 238.445 275.4 238.445 276.853C238.445 277.806 238.256 278.745 237.879 279.673C237.509 280.601 236.848 281.631 235.896 282.764C234.944 283.888 233.602 285.238 231.87 286.815L228.188 290.422V290.595H238.777V294.953H220.801ZM255.75 290.225V288.895C255.75 287.886 255.963 286.958 256.39 286.113C256.825 285.259 257.453 284.578 258.274 284.069C259.103 283.552 260.113 283.293 261.303 283.293C262.51 283.293 263.524 283.547 264.344 284.056C265.173 284.565 265.797 285.247 266.216 286.1C266.643 286.946 266.856 287.878 266.856 288.895V290.225C266.856 291.235 266.643 292.167 266.216 293.02C265.789 293.866 265.161 294.543 264.332 295.052C263.503 295.569 262.493 295.828 261.303 295.828C260.096 295.828 259.083 295.569 258.262 295.052C257.441 294.543 256.817 293.866 256.39 293.02C255.963 292.167 255.75 291.235 255.75 290.225ZM259.333 288.895V290.225C259.333 290.808 259.473 291.358 259.752 291.875C260.039 292.392 260.556 292.651 261.303 292.651C262.05 292.651 262.559 292.396 262.83 291.887C263.109 291.379 263.249 290.824 263.249 290.225V288.895C263.249 288.296 263.117 287.738 262.855 287.221C262.592 286.704 262.075 286.445 261.303 286.445C260.564 286.445 260.051 286.704 259.764 287.221C259.477 287.738 259.333 288.296 259.333 288.895ZM242.809 275.794V274.465C242.809 273.447 243.027 272.515 243.462 271.67C243.897 270.816 244.525 270.135 245.346 269.626C246.175 269.117 247.176 268.862 248.35 268.862C249.565 268.862 250.583 269.117 251.404 269.626C252.224 270.135 252.848 270.816 253.275 271.67C253.702 272.515 253.915 273.447 253.915 274.465V275.794C253.915 276.812 253.698 277.744 253.263 278.589C252.836 279.435 252.208 280.112 251.379 280.621C250.558 281.122 249.548 281.372 248.35 281.372C247.151 281.372 246.138 281.118 245.309 280.609C244.488 280.092 243.864 279.414 243.437 278.577C243.018 277.732 242.809 276.804 242.809 275.794ZM246.417 274.465V275.794C246.417 276.394 246.556 276.948 246.835 277.457C247.123 277.966 247.628 278.22 248.35 278.22C249.105 278.22 249.618 277.966 249.889 277.457C250.168 276.948 250.308 276.394 250.308 275.794V274.465C250.308 273.865 250.176 273.307 249.914 272.79C249.651 272.273 249.13 272.014 248.35 272.014C247.619 272.014 247.115 272.277 246.835 272.802C246.556 273.328 246.417 273.882 246.417 274.465ZM244.434 294.953L261.771 269.736H264.997L247.66 294.953H244.434Z" fill="#585D62"/>
<path d="M193.737 353.416C184.453 348.251 176.277 341.308 169.676 332.982C163.075 324.657 158.179 315.113 155.266 304.896C152.354 294.678 151.482 283.987 152.702 273.433C153.921 262.879 157.207 252.668 162.372 243.384C167.538 234.099 174.481 225.923 182.806 219.322C191.132 212.722 200.675 207.825 210.893 204.913C221.11 202 231.801 201.129 242.356 202.348C252.91 203.567 263.121 206.853 272.405 212.019C281.689 217.184 289.865 224.127 296.466 232.453C303.067 240.778 307.964 250.322 310.876 260.539C313.789 270.757 314.66 281.448 313.441 292.002C312.222 302.556 308.936 312.767 303.77 322.051C298.605 331.336 291.661 339.512 283.336 346.113C275.011 352.713 265.467 357.61 255.25 360.522C245.032 363.435 234.341 364.306 223.787 363.087C213.233 361.868 203.022 358.582 193.737 353.416L193.737 353.416Z" stroke="#1A1A1A" stroke-width="17.3366"/>
<path d="M233.071 363.622C213.365 363.622 194.336 356.429 179.557 343.394C164.777 330.359 155.263 312.378 152.801 292.826C150.339 273.274 155.097 253.496 166.183 237.204C177.27 220.911 193.921 209.225 213.012 204.339C232.103 199.454 252.321 201.703 269.871 210.667C287.421 219.631 301.096 234.691 308.329 253.022C315.562 271.353 315.856 291.694 309.155 310.226C302.455 328.759 289.221 344.208 271.937 353.675" stroke="#585D62" stroke-width="17.3366" stroke-linecap="round" stroke-linejoin="round"/>
</g>
</svg>
