<svg width="22" height="22" viewBox="0 0 22 22" fill="none" xmlns="http://www.w3.org/2000/svg">
<path d="M8.02083 6.41667C8.02083 6.62733 7.97934 6.83593 7.89872 7.03055C7.81811 7.22518 7.69994 7.40202 7.55098 7.55098C7.40202 7.69994 7.22518 7.81811 7.03055 7.89872C6.83593 7.97934 6.62733 8.02083 6.41667 8.02083C6.206 8.02083 5.99741 7.97934 5.80278 7.89872C5.60815 7.81811 5.43131 7.69994 5.28235 7.55098C5.13339 7.40202 5.01523 7.22518 4.93461 7.03055C4.85399 6.83593 4.8125 6.62733 4.8125 6.41667C4.8125 6.206 4.85399 5.99741 4.93461 5.80278C5.01523 5.60815 5.13339 5.43131 5.28235 5.28235C5.43131 5.13339 5.60815 5.01523 5.80278 4.93461C5.99741 4.85399 6.206 4.8125 6.41667 4.8125C6.62733 4.8125 6.83593 4.85399 7.03055 4.93461C7.22518 5.01523 7.40202 5.13339 7.55098 5.28235C7.69994 5.43131 7.81811 5.60815 7.89872 5.80278C7.97934 5.99741 8.02083 6.206 8.02083 6.41667L8.02083 6.41667Z" stroke="white" stroke-width="1.375" stroke-linecap="round" stroke-linejoin="round"/>
<path d="M17.1877 15.5832C17.1877 15.7939 17.1462 16.0025 17.0656 16.1971C16.985 16.3917 16.8668 16.5686 16.7179 16.7175C16.5689 16.8665 16.3921 16.9847 16.1974 17.0653C16.0028 17.1459 15.7942 17.1874 15.5835 17.1874C15.3729 17.1874 15.1643 17.1459 14.9696 17.0653C14.775 16.9847 14.5982 16.8665 14.4492 16.7175C14.3003 16.5686 14.1821 16.3917 14.1015 16.1971C14.0209 16.0025 13.9794 15.7939 13.9794 15.5832C13.9794 15.3726 14.0209 15.164 14.1015 14.9693C14.1821 14.7747 14.3003 14.5979 14.4492 14.4489C14.5982 14.3 14.775 14.1818 14.9696 14.1012C15.1643 14.0206 15.3729 13.9791 15.5835 13.9791C15.7942 13.9791 16.0028 14.0206 16.1974 14.1012C16.3921 14.1818 16.5689 14.3 16.7179 14.4489C16.8668 14.5979 16.985 14.7747 17.0656 14.9693C17.1462 15.164 17.1877 15.3726 17.1877 15.5832L17.1877 15.5832Z" stroke="white" stroke-width="1.375" stroke-linecap="round" stroke-linejoin="round"/>
<path d="M10.7766 6.41656H13.3125C14.1092 6.41656 14.5082 7.40395 13.9448 7.98141L8.05558 14.0184C7.49224 14.5959 7.89122 15.5832 8.6879 15.5832H11.2238" stroke="white" stroke-width="1.375" stroke-linecap="round" stroke-linejoin="round"/>
</svg>
