<svg width="22" height="22" viewBox="0 0 22 22" fill="none" xmlns="http://www.w3.org/2000/svg">
<circle cx="11" cy="12.6041" r="4.58333" stroke="#FAFAFA" stroke-width="1.375"/>
<path d="M10.8256 10.3909C10.8805 10.222 11.1195 10.222 11.1744 10.3909L11.5763 11.6278C11.6008 11.7033 11.6712 11.7545 11.7506 11.7545H13.0512C13.2288 11.7545 13.3026 11.9817 13.1589 12.0861L12.1068 12.8505C12.0425 12.8972 12.0156 12.98 12.0402 13.0555L12.442 14.2924C12.4969 14.4613 12.3036 14.6018 12.1599 14.4974L11.1078 13.7329C11.0435 13.6863 10.9565 13.6863 10.8922 13.7329L9.84007 14.4974C9.69639 14.6018 9.50307 14.4613 9.55795 14.2924L9.95984 13.0555C9.98439 12.98 9.9575 12.8972 9.89324 12.8505L8.84108 12.0861C8.69739 11.9817 8.77124 11.7545 8.94884 11.7545H10.2494C10.3288 11.7545 10.3992 11.7033 10.4237 11.6278L10.8256 10.3909Z" fill="#FAFAFA"/>
<path d="M8.02083 8.9375V4.35417L11 5.5L13.9792 4.35417V8.9375" stroke="#FAFAFA" stroke-width="1.375" stroke-linecap="round" stroke-linejoin="round"/>
</svg>
