<svg width="1500" height="1000" viewBox="0 0 1500 1000" fill="none" xmlns="http://www.w3.org/2000/svg">
<g clip-path="url(#clip0_331_10918)">
<path d="M0 83H1500" stroke="#606468"/>
<path d="M0 186H1500" stroke="#606468"/>
<path d="M0 289H1500" stroke="#606468"/>
<path d="M0 392H1500" stroke="#606468"/>
<path d="M0 495H1500" stroke="#606468"/>
<path d="M0 598H1500" stroke="#606468"/>
<path d="M0 701H1500" stroke="#606468"/>
<path d="M0 804H1500" stroke="#606468"/>
<path d="M0 907H1500" stroke="#606468"/>
<path d="M88.0001 0L88 1000" stroke="#606468"/>
<path d="M198 0L198 1000" stroke="#606468"/>
<path d="M308 0L308 1000" stroke="#606468"/>
<path d="M418 0L418 1000" stroke="#606468"/>
<path d="M528 0L528 1000" stroke="#606468"/>
<path d="M638 0L638 1000" stroke="#606468"/>
<path d="M748 0L748 1000" stroke="#606468"/>
<path d="M858 0L858 1000" stroke="#606468"/>
<path d="M968.001 0L968.001 1000" stroke="#606468"/>
<path d="M1078 0L1078 1000" stroke="#606468"/>
<path d="M1188 0L1188 1000" stroke="#606468"/>
<path d="M1298 0L1298 1000" stroke="#606468"/>
<path d="M1408 0L1408 1000" stroke="#606468"/>
<rect width="1500" height="1000" fill="url(#paint0_radial_331_10918)"/>
</g>
<defs>
<radialGradient id="paint0_radial_331_10918" cx="0" cy="0" r="1" gradientUnits="userSpaceOnUse" gradientTransform="translate(750 500) rotate(-90) scale(440.5 660.75)">
<stop stop-color="#0B0A0A" stop-opacity="0"/>
<stop offset="1" stop-color="#0B0A0A"/>
</radialGradient>
<clipPath id="clip0_331_10918">
<rect width="1500" height="1000" fill="white"/>
</clipPath>
</defs>
</svg>
