<svg width="34" height="34" viewBox="0 0 34 34" fill="none" xmlns="http://www.w3.org/2000/svg">
<path d="M11.48 20.041C11.2034 20.3176 10.7549 20.3176 10.4783 20.041L7.93837 17.501C7.66175 17.2244 7.66175 16.7759 7.93837 16.4993L10.4783 13.9594C10.7549 13.6827 11.2034 13.6827 11.48 13.9594L14.02 16.4993C14.2966 16.7759 14.2966 17.2244 14.02 17.501L11.48 20.041Z" stroke="#FAFAFA" stroke-width="2" stroke-linejoin="round"/>
<path d="M17.5009 26.0615C17.2243 26.3381 16.7758 26.3381 16.4992 26.0615L13.9592 23.5215C13.6826 23.2449 13.6826 22.7964 13.9592 22.5198L16.4992 19.9799C16.7758 19.7032 17.2243 19.7033 17.5009 19.9799L20.0408 22.5198C20.3175 22.7964 20.3175 23.2449 20.0408 23.5215L17.5009 26.0615Z" stroke="#FAFAFA" stroke-width="2" stroke-linejoin="round"/>
<path d="M17.5009 14.02C17.2243 14.2966 16.7758 14.2966 16.4992 14.02L13.9592 11.48C13.6826 11.2034 13.6826 10.7549 13.9592 10.4783L16.4992 7.93837C16.7758 7.66175 17.2243 7.66175 17.5009 7.93837L20.0408 10.4783C20.3175 10.7549 20.3175 11.2034 20.0408 11.48L17.5009 14.02Z" stroke="#FAFAFA" stroke-width="2" stroke-linejoin="round"/>
<path d="M23.5217 20.041C23.245 20.3176 22.7965 20.3176 22.5199 20.041L19.98 17.501C19.7034 17.2244 19.7034 16.7759 19.98 16.4993L22.5199 13.9594C22.7965 13.6827 23.245 13.6827 23.5217 13.9594L26.0616 16.4993C26.3382 16.7759 26.3382 17.2244 26.0616 17.501L23.5217 20.041Z" stroke="#FAFAFA" stroke-width="2" stroke-linejoin="round"/>
</svg>
