<svg width="34" height="34" viewBox="0 0 34 34" fill="none" xmlns="http://www.w3.org/2000/svg">
<path d="M7.4375 21.6042C7.4375 20.8218 8.07176 20.1875 8.85417 20.1875H11.6875C12.4699 20.1875 13.1042 20.8218 13.1042 21.6042V26.5625H8.85417C8.07176 26.5625 7.4375 25.9282 7.4375 25.1458V21.6042Z" stroke="#FAFAFA" stroke-width="2"/>
<path d="M13.1041 15.2292C13.1041 14.4468 13.7384 13.8125 14.5208 13.8125H17.3541C18.1365 13.8125 18.7708 14.4468 18.7708 15.2292V26.5625H13.1041V15.2292Z" stroke="#FAFAFA" stroke-width="2"/>
<path d="M18.7709 8.85417C18.7709 8.07176 19.4051 7.4375 20.1875 7.4375H23.0209C23.8033 7.4375 24.4375 8.07176 24.4375 8.85417V25.1458C24.4375 25.9282 23.8033 26.5625 23.0209 26.5625H18.7709V8.85417Z" stroke="#FAFAFA" stroke-width="2"/>
</svg>
