<svg width="18" height="11" viewBox="0 0 18 11" fill="none" xmlns="http://www.w3.org/2000/svg">
<path d="M1.51763 0.504574C1.43176 0.418732 1.33074 0.351623 1.22035 0.307078C1.10996 0.262534 0.992357 0.241426 0.874255 0.24496C0.756152 0.248494 0.639864 0.276601 0.53203 0.327676C0.424196 0.378751 0.326928 0.451794 0.245779 0.542634C0.164631 0.633474 0.101191 0.740333 0.0590816 0.857109C0.0169724 0.973885 -0.00298156 1.09829 0.000359397 1.22322C0.00370035 1.34816 0.0302706 1.47117 0.0785531 1.58524C0.126836 1.69931 0.195885 1.80221 0.281758 1.88805L8.37701 9.97576C8.54401 10.1428 8.76512 10.2358 8.99494 10.2358C9.22477 10.2358 9.44588 10.1428 9.61288 9.97576L17.709 1.88805C17.7968 1.80277 17.8676 1.6999 17.9175 1.58541C17.9673 1.47092 17.9952 1.34709 17.9994 1.22112C18.0037 1.09515 17.9842 0.96954 17.9421 0.851596C17.9001 0.733652 17.8363 0.625721 17.7545 0.534072C17.6727 0.442424 17.5745 0.368885 17.4656 0.317726C17.3567 0.266568 17.2392 0.238811 17.1201 0.236066C17.001 0.233322 16.8825 0.255644 16.7716 0.301738C16.6607 0.347832 16.5596 0.416779 16.4741 0.504573L8.99494 7.97571L1.51763 0.504574Z" fill="#A5A6A7"/>
</svg>
