<svg width="92" height="24" viewBox="0 0 92 24" fill="none" xmlns="http://www.w3.org/2000/svg">
<g clip-path="url(#clip0_301_784)">
<path d="M86.7021 13.138C86.4833 11.9556 86.0891 11.0578 85.5196 10.4447C84.9723 9.83162 84.1292 9.52507 82.9907 9.52507C82.2462 9.52507 81.6222 9.65647 81.1185 9.91922C80.6369 10.1601 80.2427 10.4666 79.9362 10.8389C79.6516 11.2111 79.4434 11.6052 79.3122 12.0213C79.2027 12.4373 79.1369 12.8095 79.115 13.138H86.7021ZM79.115 16.094C79.1807 17.6048 79.564 18.6996 80.2647 19.3784C80.9653 20.0572 81.9726 20.3966 83.2863 20.3966C84.2278 20.3966 85.038 20.1666 85.7168 19.7068C86.3956 19.2251 86.8117 18.7215 86.9648 18.196H91.0704C90.4135 20.2323 89.4063 21.6884 88.0487 22.5643C86.6912 23.4401 85.049 23.878 83.122 23.878C81.7863 23.878 80.5821 23.6701 79.5092 23.254C78.4362 22.8161 77.5276 22.203 76.7831 21.4147C76.0386 20.6265 75.4584 19.6849 75.0423 18.5901C74.6481 17.4953 74.4512 16.291 74.4512 14.9772C74.4512 13.7073 74.6591 12.5249 75.0752 11.43C75.4913 10.3353 76.0824 9.3937 76.8488 8.60543C77.6153 7.79527 78.5239 7.16029 79.5749 6.70048C80.6479 6.24065 81.8301 6.01074 83.122 6.01074C84.5672 6.01074 85.8261 6.2954 86.8991 6.8647C87.972 7.41211 88.848 8.15658 89.5268 9.09811C90.2273 10.0396 90.731 11.1126 91.0375 12.3168C91.344 13.5212 91.4536 14.7802 91.366 16.094H79.115Z" fill="white"/>
<path d="M69.2187 14.9113C69.2187 14.2106 69.153 13.5428 69.0218 12.9078C68.8903 12.2509 68.6605 11.6816 68.332 11.1999C68.0255 10.6963 67.6204 10.2912 67.1166 9.98468C66.6132 9.67813 65.9782 9.52484 65.2118 9.52484C64.4453 9.52484 63.7994 9.67813 63.274 9.98468C62.7484 10.2912 62.3216 10.6963 61.9929 11.1999C61.6864 11.7035 61.4566 12.2838 61.3034 12.9407C61.1719 13.5757 61.1062 14.2435 61.1062 14.9442C61.1062 15.601 61.1829 16.2579 61.336 16.9148C61.4894 17.5717 61.7302 18.1629 62.0586 18.6884C62.409 19.192 62.836 19.6081 63.3398 19.9365C63.8652 20.243 64.4892 20.3963 65.2118 20.3963C65.9782 20.3963 66.6132 20.243 67.1166 19.9365C67.6423 19.63 68.0584 19.2249 68.3649 18.7213C68.6714 18.1958 68.8903 17.6045 69.0218 16.9477C69.153 16.2908 69.2187 15.612 69.2187 14.9113ZM69.2845 21.2831H69.2187C68.6714 22.2028 67.9488 22.8706 67.0512 23.2866C66.1752 23.6807 65.1789 23.8778 64.0621 23.8778C62.7922 23.8778 61.6754 23.6369 60.712 23.1553C59.7486 22.6516 58.9493 21.9838 58.3144 21.1517C57.7013 20.2978 57.2307 19.3234 56.902 18.2286C56.5955 17.1338 56.4424 15.9952 56.4424 14.8128C56.4424 13.6742 56.5955 12.5794 56.902 11.5283C57.2307 10.4554 57.7013 9.51391 58.3144 8.70373C58.9493 7.89357 59.7377 7.24763 60.6792 6.76594C61.6209 6.2623 62.7155 6.01051 63.9638 6.01051C64.971 6.01051 65.9234 6.22946 66.8211 6.66738C67.7409 7.08342 68.4633 7.70747 68.9889 8.53951H69.0546V0H73.7185V23.4508H69.2845V21.2831Z" fill="white"/>
<path d="M55.4627 3.84279H50.7988V0H55.4627V3.84279ZM50.7988 6.47032H55.4627V23.4508H50.7988V6.47032Z" fill="white"/>
<path d="M38.6098 17.9332C38.6098 18.4369 38.7084 18.8748 38.9053 19.247C39.1245 19.5974 39.3981 19.8929 39.7266 20.1338C40.055 20.3528 40.4273 20.517 40.8433 20.6265C41.2811 20.7359 41.73 20.7907 42.19 20.7907C42.5184 20.7907 42.8578 20.7578 43.2081 20.6921C43.5804 20.6046 43.9088 20.4841 44.1934 20.3309C44.5 20.1557 44.7517 19.9367 44.9489 19.674C45.1459 19.3893 45.2445 19.039 45.2445 18.623C45.2445 17.9223 44.7736 17.3968 43.8321 17.0464C42.9126 16.6961 41.6205 16.3457 39.9564 15.9954C39.2776 15.8421 38.6098 15.667 37.9529 15.4699C37.318 15.251 36.7487 14.9772 36.245 14.6488C35.7415 14.2985 35.3364 13.8715 35.0299 13.3679C34.7233 12.8424 34.57 12.2074 34.57 11.4629C34.57 10.3681 34.7781 9.47034 35.194 8.76967C35.632 8.06898 36.2012 7.52157 36.9019 7.12745C37.6026 6.71141 38.3909 6.42678 39.2667 6.27349C40.1427 6.09832 41.0403 6.01074 41.9599 6.01074C42.8797 6.01074 43.7664 6.09832 44.6205 6.27349C45.4962 6.44866 46.2736 6.74426 46.9524 7.16029C47.6312 7.57632 48.1894 8.13466 48.6274 8.83536C49.0871 9.51414 49.361 10.379 49.4484 11.43H45.0144C44.9489 10.5323 44.6095 9.93015 43.9962 9.6236C43.3832 9.29517 42.6606 9.13095 41.8286 9.13095C41.566 9.13095 41.2811 9.15284 40.9746 9.19664C40.668 9.21853 40.3834 9.28421 40.1207 9.3937C39.8797 9.50319 39.6718 9.6674 39.4967 9.88638C39.3214 10.0834 39.2338 10.3571 39.2338 10.7075C39.2338 11.1235 39.3872 11.4629 39.6937 11.7257C40.0002 11.9884 40.3944 12.2074 40.8762 12.3825C41.3797 12.5358 41.9489 12.6782 42.5841 12.8095C43.2191 12.9409 43.865 13.0832 44.5219 13.2365C45.2007 13.3898 45.8575 13.5759 46.4925 13.7949C47.1493 14.0138 47.7295 14.3094 48.2333 14.6816C48.7367 15.032 49.1419 15.4809 49.4484 16.0283C49.7549 16.5538 49.9083 17.2107 49.9083 17.9989C49.9083 19.1156 49.6785 20.0572 49.2186 20.8235C48.7806 21.568 48.2004 22.1702 47.4778 22.63C46.7552 23.0898 45.9233 23.4073 44.9815 23.5825C44.062 23.7795 43.1205 23.878 42.1571 23.878C41.1718 23.878 40.2084 23.7795 39.2667 23.5825C38.3252 23.3854 37.4823 23.057 36.7378 22.5971C36.0152 22.1373 35.4131 21.5351 34.9313 20.7907C34.4713 20.0243 34.2196 19.0718 34.1758 17.9332H38.6098Z" fill="white"/>
<path d="M29.5382 13.138C29.319 11.9556 28.9249 11.0578 28.3556 10.4447C27.8083 9.83162 26.9652 9.52507 25.8266 9.52507C25.0822 9.52507 24.4581 9.65647 23.9545 9.91922C23.4728 10.1601 23.0786 10.4666 22.7721 10.8389C22.4875 11.2111 22.2794 11.6052 22.1481 12.0213C22.0386 12.4373 21.9729 12.8095 21.951 13.138H29.5382ZM21.951 16.094C22.0167 17.6048 22.3999 18.6996 23.1006 19.3784C23.8012 20.0572 24.8084 20.3966 26.1223 20.3966C27.0638 20.3966 27.8738 20.1666 28.5526 19.7068C29.2314 19.2251 29.6475 18.7215 29.8009 18.196H33.9064C33.2496 20.2323 32.2423 21.6884 30.8848 22.5643C29.5272 23.4401 27.8848 23.878 25.958 23.878C24.6223 23.878 23.418 23.6701 22.3451 23.254C21.2722 22.8161 20.3635 22.203 19.619 21.4147C18.8746 20.6265 18.2943 19.6849 17.8783 18.5901C17.4842 17.4953 17.2871 16.291 17.2871 14.9772C17.2871 13.7073 17.4951 12.5249 17.9112 11.43C18.3272 10.3353 18.9184 9.3937 19.6847 8.60543C20.4511 7.79527 21.3598 7.16029 22.4108 6.70048C23.4837 6.24065 24.6661 6.01074 25.958 6.01074C27.4032 6.01074 28.6622 6.2954 29.7351 6.8647C30.8081 7.41211 31.6838 8.15658 32.3626 9.09811C33.0633 10.0396 33.567 11.1126 33.8736 12.3168C34.1801 13.5212 34.2896 14.7802 34.202 16.094H21.951Z" fill="white"/>
<path d="M12.448 14.977C12.448 14.2544 12.3714 13.5647 12.2181 12.9078C12.0648 12.2509 11.824 11.6707 11.4955 11.1671C11.1671 10.6635 10.751 10.2693 10.2474 9.98468C9.76571 9.67813 9.17452 9.52484 8.47383 9.52484C7.79505 9.52484 7.20386 9.67813 6.70025 9.98468C6.19662 10.2693 5.78061 10.6635 5.45215 11.1671C5.12371 11.6707 4.88285 12.2509 4.72959 12.9078C4.57631 13.5647 4.49966 14.2544 4.49966 14.977C4.49966 15.6777 4.57631 16.3565 4.72959 17.0134C4.88285 17.6702 5.12371 18.2505 5.45215 18.7541C5.78061 19.2577 6.19662 19.6628 6.70025 19.9693C7.20386 20.254 7.79505 20.3963 8.47383 20.3963C9.17452 20.3963 9.76571 20.254 10.2474 19.9693C10.751 19.6628 11.1671 19.2577 11.4955 18.7541C11.824 18.2505 12.0648 17.6702 12.2181 17.0134C12.3714 16.3565 12.448 15.6777 12.448 14.977ZM0 0H4.66391V8.53951H4.72959C5.29889 7.66367 6.06524 7.02869 7.02869 6.63454C8.01402 6.21853 9.03219 6.01051 10.0832 6.01051C10.9372 6.01051 11.7802 6.18569 12.6122 6.53601C13.4443 6.88636 14.1888 7.42281 14.8456 8.14539C15.5244 8.86797 16.0718 9.79855 16.4878 10.9372C16.9039 12.0539 17.1119 13.3895 17.1119 14.9442C17.1119 16.4988 16.9039 17.8454 16.4878 18.984C16.0718 20.1007 15.5244 21.0204 14.8456 21.7429C14.1888 22.4655 13.4443 23.002 12.6122 23.3523C11.7802 23.7026 10.9372 23.8778 10.0832 23.8778C8.83513 23.8778 7.71843 23.6807 6.7331 23.2866C5.74777 22.8925 5.0033 22.2247 4.49966 21.2831H4.43398V23.4508H0V0Z" fill="white"/>
</g>
<defs>
<clipPath id="clip0_301_784">
<rect width="91.5652" height="24" fill="white"/>
</clipPath>
</defs>
</svg>
