<svg width="62" height="16" viewBox="0 0 62 16" fill="none" xmlns="http://www.w3.org/2000/svg">
<path d="M57.8021 8.7585C57.6562 7.97024 57.3934 7.37173 57.0137 6.963C56.6488 6.55427 56.0868 6.34991 55.3278 6.34991C54.8315 6.34991 54.4155 6.43751 54.0796 6.61267C53.7586 6.77325 53.4958 6.97761 53.2915 7.22577C53.1017 7.47392 52.9629 7.73667 52.8755 8.01403C52.8024 8.29138 52.7586 8.53954 52.744 8.7585H57.8021ZM52.744 10.7292C52.7878 11.7364 53.0433 12.4663 53.5104 12.9188C53.9775 13.3713 54.649 13.5976 55.5249 13.5976C56.1525 13.5976 56.6927 13.4443 57.1452 13.1377C57.5977 12.8166 57.8751 12.4808 57.9772 12.1305H60.7142C60.2763 13.4881 59.6049 14.4588 58.6998 15.0427C57.7948 15.6266 56.7 15.9186 55.4153 15.9186C54.5249 15.9186 53.7221 15.7799 53.0068 15.5025C52.2915 15.2106 51.6857 14.8019 51.1894 14.2763C50.693 13.7508 50.3062 13.1231 50.0289 12.3933C49.7661 11.6634 49.6348 10.8605 49.6348 9.98469C49.6348 9.13803 49.7734 8.34977 50.0508 7.61989C50.3282 6.89003 50.7222 6.26232 51.2332 5.73681C51.7442 5.19671 52.3499 4.77338 53.0506 4.46685C53.7659 4.16029 54.5541 4.00702 55.4153 4.00702C56.3788 4.00702 57.2181 4.19679 57.9334 4.57632C58.6487 4.94126 59.2327 5.43758 59.6852 6.06526C60.1522 6.69295 60.488 7.40824 60.6923 8.21109C60.8967 9.01396 60.9697 9.85331 60.9113 10.7292H52.744Z" fill="black"/>
<path d="M46.1455 9.94092C46.1455 9.47379 46.1017 9.02857 46.0142 8.60525C45.9265 8.16732 45.7733 7.78779 45.5544 7.46664C45.35 7.1309 45.0799 6.86085 44.7441 6.65648C44.4085 6.45212 43.9851 6.34993 43.4742 6.34993C42.9632 6.34993 42.5326 6.45212 42.1824 6.65648C41.8319 6.86085 41.5474 7.1309 41.3283 7.46664C41.1239 7.80238 40.9707 8.18921 40.8686 8.62714C40.781 9.05047 40.7371 9.49568 40.7371 9.96281C40.7371 10.4007 40.7883 10.8387 40.8904 11.2766C40.9926 11.7145 41.1531 12.1086 41.3721 12.459C41.6057 12.7947 41.8904 13.0721 42.2262 13.291C42.5765 13.4954 42.9925 13.5976 43.4742 13.5976C43.9851 13.5976 44.4085 13.4954 44.7441 13.291C45.0945 13.0867 45.3719 12.8166 45.5763 12.4809C45.7806 12.1305 45.9265 11.7364 46.0142 11.2985C46.1017 10.8606 46.1455 10.408 46.1455 9.94092ZM46.1893 14.1888H46.1455C45.7806 14.8019 45.2989 15.2471 44.7005 15.5244C44.1165 15.7872 43.4523 15.9186 42.7078 15.9186C41.8611 15.9186 41.1166 15.758 40.4744 15.4369C39.8321 15.1011 39.2992 14.6559 38.8759 14.1012C38.4672 13.5319 38.1535 12.8823 37.9344 12.1524C37.73 11.4226 37.6279 10.6635 37.6279 9.87521C37.6279 9.11615 37.73 8.38627 37.9344 7.6856C38.1535 6.97033 38.4672 6.34264 38.8759 5.80252C39.2992 5.26241 39.8248 4.83179 40.4525 4.51066C41.0803 4.1749 41.81 4.00704 42.6422 4.00704C43.3137 4.00704 43.9486 4.153 44.5471 4.44495C45.1603 4.72231 45.6418 5.13834 45.9923 5.69304H46.0361V3.05176e-05H49.1453V15.6339H46.1893V14.1888Z" fill="black"/>
<path d="M36.9754 2.56189H33.8662V3.05176e-05H36.9754V2.56189ZM33.8662 4.31358H36.9754V15.6339H33.8662V4.31358Z" fill="black"/>
<path d="M25.7402 11.9554C25.7402 12.2911 25.8059 12.583 25.9372 12.8312C26.0833 13.0648 26.2657 13.2618 26.4847 13.4224C26.7037 13.5684 26.9518 13.6778 27.2292 13.7508C27.521 13.8238 27.8204 13.8603 28.127 13.8603C28.3459 13.8603 28.5722 13.8384 28.8057 13.7946C29.0539 13.7362 29.2729 13.6559 29.4626 13.5538C29.667 13.437 29.8348 13.291 29.9663 13.1158C30.0976 12.9261 30.1633 12.6925 30.1633 12.4152C30.1633 11.948 29.8494 11.5977 29.2217 11.3642C28.6087 11.1306 27.7473 10.897 26.6379 10.6635C26.1854 10.5613 25.7402 10.4445 25.3023 10.3131C24.879 10.1672 24.4995 9.98469 24.1637 9.76572C23.828 9.53217 23.5579 9.24751 23.3536 8.91177C23.1492 8.56144 23.047 8.1381 23.047 7.64178C23.047 6.91192 23.1857 6.31342 23.463 5.84631C23.755 5.37918 24.1344 5.01424 24.6016 4.75149C25.0687 4.47413 25.5943 4.28438 26.1781 4.18218C26.7621 4.0654 27.3605 4.00702 27.9736 4.00702C28.5868 4.00702 29.1779 4.0654 29.7473 4.18218C30.3311 4.29897 30.8494 4.49603 31.3019 4.77338C31.7544 5.05074 32.1266 5.42297 32.4186 5.8901C32.7251 6.34262 32.9077 6.91921 32.9659 7.61989H30.0099C29.9663 7.0214 29.74 6.61996 29.3311 6.41559C28.9224 6.19664 28.4407 6.08716 27.8861 6.08716C27.711 6.08716 27.5211 6.10175 27.3167 6.13095C27.1124 6.14554 26.9226 6.18933 26.7475 6.26232C26.5868 6.33531 26.4482 6.44479 26.3315 6.59078C26.2146 6.72215 26.1562 6.90462 26.1562 7.13818C26.1562 7.41552 26.2584 7.64178 26.4628 7.81697C26.6671 7.99213 26.9299 8.1381 27.2511 8.25488C27.5868 8.35707 27.9663 8.45196 28.3897 8.53954C28.8131 8.62712 29.2437 8.72201 29.6816 8.82418C30.1341 8.92636 30.572 9.05045 30.9953 9.19643C31.4332 9.34239 31.82 9.53945 32.1558 9.78761C32.4915 10.0212 32.7616 10.3204 32.9659 10.6854C33.1703 11.0357 33.2725 11.4736 33.2725 11.9991C33.2725 12.7436 33.1193 13.3713 32.8127 13.8822C32.5207 14.3785 32.1339 14.78 31.6522 15.0865C31.1704 15.3931 30.6158 15.6047 29.988 15.7215C29.375 15.8529 28.7473 15.9186 28.105 15.9186C27.4482 15.9186 26.8059 15.8529 26.1781 15.7215C25.5504 15.5901 24.9885 15.3712 24.4922 15.0646C24.0104 14.7581 23.6091 14.3566 23.2878 13.8603C22.9812 13.3494 22.8134 12.7144 22.7842 11.9554H25.7402Z" fill="black"/>
<path d="M19.6918 8.7585C19.5457 7.97024 19.2829 7.37173 18.9034 6.963C18.5386 6.55427 17.9765 6.34991 17.2174 6.34991C16.7211 6.34991 16.3051 6.43751 15.9694 6.61267C15.6482 6.77325 15.3854 6.97761 15.1811 7.22577C14.9913 7.47392 14.8526 7.73667 14.7651 8.01403C14.6921 8.29138 14.6483 8.53954 14.6337 8.7585H19.6918ZM14.6337 10.7292C14.6775 11.7364 14.9329 12.4663 15.4 12.9188C15.8672 13.3713 16.5386 13.5976 17.4146 13.5976C18.0422 13.5976 18.5822 13.4443 19.0347 13.1377C19.4873 12.8166 19.7647 12.4808 19.8669 12.1305H22.604C22.166 13.4881 21.4946 14.4588 20.5895 15.0427C19.6845 15.6266 18.5895 15.9186 17.305 15.9186C16.4146 15.9186 15.6117 15.7799 14.8964 15.5025C14.1812 15.2106 13.5754 14.8019 13.079 14.2763C12.5827 13.7508 12.1959 13.1231 11.9186 12.3933C11.6558 11.6634 11.5244 10.8605 11.5244 9.98469C11.5244 9.13803 11.6631 8.34977 11.9404 7.61989C12.2178 6.89003 12.6119 6.26232 13.1228 5.73681C13.6338 5.19671 14.2395 4.77338 14.9402 4.46685C15.6555 4.16029 16.4438 4.00702 17.305 4.00702C18.2685 4.00702 19.1078 4.19679 19.8231 4.57632C20.5384 4.94126 21.1222 5.43758 21.5747 6.06526C22.0419 6.69295 22.3777 7.40824 22.5821 8.21109C22.7864 9.01396 22.8594 9.85331 22.801 10.7292H14.6337Z" fill="black"/>
<path d="M8.29866 9.98468C8.29866 9.50296 8.24757 9.04313 8.14539 8.60522C8.0432 8.16729 7.88264 7.78045 7.66367 7.44471C7.44471 7.10897 7.16736 6.84621 6.83162 6.65645C6.51047 6.45209 6.11635 6.3499 5.64922 6.3499C5.1967 6.3499 4.80257 6.45209 4.46684 6.65645C4.13108 6.84621 3.85374 7.10897 3.63477 7.44471C3.41581 7.78045 3.25524 8.16729 3.15306 8.60522C3.05087 9.04313 2.99977 9.50296 2.99977 9.98468C2.99977 10.4518 3.05087 10.9043 3.15306 11.3422C3.25524 11.7802 3.41581 12.167 3.63477 12.5027C3.85374 12.8385 4.13108 13.1085 4.46684 13.3129C4.80257 13.5027 5.1967 13.5975 5.64922 13.5975C6.11635 13.5975 6.51047 13.5027 6.83162 13.3129C7.16736 13.1085 7.44471 12.8385 7.66367 12.5027C7.88264 12.167 8.0432 11.7802 8.14539 11.3422C8.24757 10.9043 8.29866 10.4518 8.29866 9.98468ZM0 0H3.10927V5.69301H3.15306C3.53259 5.10911 4.0435 4.68579 4.68579 4.42303C5.34268 4.14569 6.02146 4.00701 6.72214 4.00701C7.29144 4.00701 7.85344 4.12379 8.40814 4.35734C8.96285 4.5909 9.45917 4.94854 9.89708 5.43026C10.3496 5.91198 10.7145 6.53237 10.9919 7.29144C11.2693 8.03591 11.4079 8.92635 11.4079 9.96278C11.4079 10.9992 11.2693 11.8969 10.9919 12.656C10.7145 13.4005 10.3496 14.0136 9.89708 14.4953C9.45917 14.977 8.96285 15.3346 8.40814 15.5682C7.85344 15.8018 7.29144 15.9185 6.72214 15.9185C5.89009 15.9185 5.14562 15.7872 4.48873 15.5244C3.83184 15.2617 3.33553 14.8164 2.99977 14.1887H2.95598V15.6339H0V0Z" fill="black"/>
</svg>
