<svg width="33" height="39" viewBox="0 0 33 39" fill="none" xmlns="http://www.w3.org/2000/svg">
<g clip-path="url(#clip0_400_8885)">
<path d="M3.1251 10.582L14.7074 2.37794C15.6467 1.71256 16.9038 1.71256 17.8432 2.37794L29.4254 10.582C30.9516 11.6631 30.9516 13.9279 29.4254 15.009L17.8432 23.2131C16.9038 23.8785 15.6467 23.8785 14.7074 23.2131L3.1251 15.009C1.59892 13.9279 1.59892 11.6631 3.1251 10.582Z" stroke="#FAFAFA" stroke-width="3.25" stroke-linecap="round" stroke-linejoin="round"/>
<path d="M2.03455 21.5874L14.7706 30.0781C15.6818 30.6855 16.8687 30.6855 17.7799 30.0781L30.5159 21.5874" stroke="#FAFAFA" stroke-width="3.25" stroke-linecap="round" stroke-linejoin="round"/>
<path d="M2.03455 28.2939L14.7706 36.7846C15.6818 37.3921 16.8687 37.3921 17.7799 36.7846L30.5159 28.2939" stroke="#FAFAFA" stroke-width="3.25" stroke-linecap="round" stroke-linejoin="round"/>
</g>
<defs>
<clipPath id="clip0_400_8885">
<rect width="32.565" height="39" fill="white"/>
</clipPath>
</defs>
</svg>
