<svg width="87" height="30" viewBox="0 0 87 30" fill="none" xmlns="http://www.w3.org/2000/svg">
<path d="M1.92314 9.5121L9.05069 4.46344C9.62873 4.05397 10.4023 4.05397 10.9804 4.46344L18.1079 9.5121C19.0471 10.1774 19.0471 11.5711 18.1079 12.2364L10.9804 17.2851C10.4023 17.6945 9.62873 17.6945 9.05069 17.2851L1.92314 12.2364C0.983954 11.5711 0.983954 10.1774 1.92314 9.5121Z" stroke="#FAFAFA" stroke-width="2" stroke-linecap="round" stroke-linejoin="round"/>
<path d="M1.25195 16.2846L9.08954 21.5096C9.65024 21.8834 10.3807 21.8834 10.9414 21.5096L18.7789 16.2846" stroke="#FAFAFA" stroke-width="2" stroke-linecap="round" stroke-linejoin="round"/>
<path d="M1.25195 20.4116L9.08954 25.6366C9.65024 26.0104 10.3807 26.0104 10.9414 25.6366L18.7789 20.4116" stroke="#FAFAFA" stroke-width="2" stroke-linecap="round" stroke-linejoin="round"/>
<path d="M83.8687 9H86.0287V22H83.8687V20.56C83.0553 21.6933 81.8887 22.26 80.3687 22.26C78.9953 22.26 77.822 21.7533 76.8487 20.74C75.8753 19.7133 75.3887 18.4667 75.3887 17C75.3887 15.52 75.8753 14.2733 76.8487 13.26C77.822 12.2467 78.9953 11.74 80.3687 11.74C81.8887 11.74 83.0553 12.3 83.8687 13.42V9ZM78.4487 19.3C79.0487 19.9 79.802 20.2 80.7087 20.2C81.6153 20.2 82.3687 19.9 82.9687 19.3C83.5687 18.6867 83.8687 17.92 83.8687 17C83.8687 16.08 83.5687 15.32 82.9687 14.72C82.3687 14.1067 81.6153 13.8 80.7087 13.8C79.802 13.8 79.0487 14.1067 78.4487 14.72C77.8487 15.32 77.5487 16.08 77.5487 17C77.5487 17.92 77.8487 18.6867 78.4487 19.3Z" fill="white"/>
<path d="M76.4965 22H73.9165L69.8165 17.38V22H67.6565V9.7403L69.8165 9V16.42L73.6965 12H76.3365L71.9365 16.9L76.4965 22Z" fill="white"/>
<path d="M62.7951 22.26C61.2885 22.26 60.0285 21.7533 59.0151 20.74C58.0151 19.7267 57.5151 18.48 57.5151 17C57.5151 15.5067 58.0151 14.26 59.0151 13.26C60.0285 12.2467 61.2885 11.74 62.7951 11.74C63.7685 11.74 64.6551 11.9733 65.4551 12.44C66.2551 12.9067 66.8551 13.5333 67.2551 14.32L65.3951 15.4C65.1685 14.92 64.8218 14.5467 64.3551 14.28C63.9018 14 63.3751 13.86 62.7751 13.86C61.8951 13.86 61.1551 14.16 60.5551 14.76C59.9685 15.36 59.6751 16.1067 59.6751 17C59.6751 17.8933 59.9685 18.64 60.5551 19.24C61.1551 19.84 61.8951 20.14 62.7751 20.14C63.3618 20.14 63.8885 20 64.3551 19.72C64.8351 19.44 65.1951 19.0667 65.4351 18.6L67.2951 19.66C66.8685 20.46 66.2551 21.0933 65.4551 21.56C64.6551 22.0267 63.7685 22.26 62.7951 22.26Z" fill="white"/>
<path d="M54.5976 12H56.7576V22H54.5976V20.56C53.7842 21.6933 52.6176 22.26 51.0976 22.26C49.7242 22.26 48.5509 21.7533 47.5776 20.74C46.6042 19.7133 46.1176 18.4667 46.1176 17C46.1176 15.52 46.6042 14.2733 47.5776 13.26C48.5509 12.2467 49.7242 11.74 51.0976 11.74C52.6176 11.74 53.7842 12.3 54.5976 13.42V12ZM49.1776 19.3C49.7776 19.9 50.5309 20.2 51.4376 20.2C52.3442 20.2 53.0976 19.9 53.6976 19.3C54.2976 18.6867 54.5976 17.92 54.5976 17C54.5976 16.08 54.2976 15.32 53.6976 14.72C53.0976 14.1067 52.3442 13.8 51.4376 13.8C50.5309 13.8 49.7776 14.1067 49.1776 14.72C48.5776 15.32 48.2776 16.08 48.2776 17C48.2776 17.92 48.5776 18.6867 49.1776 19.3Z" fill="white"/>
<path d="M46.3286 14.08H43.8486V18.88C43.8486 19.2933 43.942 19.5933 44.1286 19.78C44.3153 19.9533 44.5886 20.0533 44.9486 20.08C45.322 20.0933 45.782 20.0867 46.3286 20.06V22C44.6753 22.2 43.4886 22.06 42.7686 21.58C42.0486 21.0867 41.6886 20.1867 41.6886 18.88V14.08H39.8486V12H41.6886V9.84L43.8486 9.2V12H46.3286V14.08Z" fill="white"/>
<path d="M35.44 22.26C34.0934 22.26 32.9467 21.9533 32 21.34C31.0667 20.7267 30.4134 19.8867 30.04 18.82L32.02 17.66C32.58 19.2333 33.74 20.02 35.5 20.02C36.3667 20.02 37.0134 19.8533 37.44 19.52C37.88 19.1733 38.1 18.7267 38.1 18.18C38.1 17.6067 37.8667 17.1733 37.4 16.88C36.9334 16.5733 36.1067 16.24 34.92 15.88C34.2534 15.68 33.7134 15.4933 33.3 15.32C32.8867 15.1467 32.4467 14.9067 31.98 14.6C31.5267 14.28 31.1867 13.8867 30.96 13.42C30.7334 12.9533 30.62 12.4067 30.62 11.78C30.62 10.54 31.06 9.56 31.94 8.84C32.82 8.10667 33.88 7.74 35.12 7.74C36.24 7.74 37.22 8.01333 38.06 8.56C38.9 9.10667 39.5467 9.86 40 10.82L38.06 11.94C37.4734 10.6333 36.4934 9.98 35.12 9.98C34.4534 9.98 33.92 10.14 33.52 10.46C33.12 10.7667 32.92 11.1867 32.92 11.72C32.92 12.24 33.12 12.6533 33.52 12.96C33.9334 13.2533 34.6734 13.5667 35.74 13.9C36.2734 14.0733 36.66 14.2067 36.9 14.3C37.1534 14.38 37.5 14.5133 37.94 14.7C38.3934 14.8867 38.7334 15.0733 38.96 15.26C39.1867 15.4467 39.4267 15.68 39.68 15.96C39.9467 16.24 40.1334 16.56 40.24 16.92C40.3467 17.28 40.4 17.6867 40.4 18.14C40.4 19.4067 39.94 20.4133 39.02 21.16C38.1134 21.8933 36.92 22.26 35.44 22.26Z" fill="white"/>
</svg>
